<?xml version="1.0" encoding="utf-8"?>
<!-- Generator: Adobe Illustrator 23.0.4, SVG Export Plug-In . SVG Version: 6.00 Build 0)  -->
<svg version="1.1" id="Ebene_1" xmlns="http://www.w3.org/2000/svg" xmlns:xlink="http://www.w3.org/1999/xlink" x="0px" y="0px"
	 viewBox="0 0 791 792" style="enable-background:new 0 0 791 792;" xml:space="preserve">
<style type="text/css">
	.st0{fill:none;}
	.st1{fill:#BC6B00;}
	.st2{fill:#FFFFFF;}
</style>
<g id="Layer_2">
	<rect x="1" y="-0.5" class="st0" width="790" height="792"/>
</g>
<rect y="-0.5" class="st1" width="791" height="792"/>
<path class="st2" d="M608,224h-80v-48c0-26.5-21.5-48-48-48H320c-26.5,0-48,21.5-48,48v48h-80c-26.5,0-48,21.5-48,48v288
	c0,26.5,21.5,48,48,48h416c26.5,0,48-21.5,48-48V272C656,245.5,634.5,224,608,224z M336,192h128v32H336V192z M496,440
	c0,4.4-3.6,8-8,8h-56v56c0,4.4-3.6,8-8,8h-48c-4.4,0-8-3.6-8-8v-56h-56c-4.4,0-8-3.6-8-8v-48c0-4.4,3.6-8,8-8h56v-56
	c0-4.4,3.6-8,8-8h48c4.4,0,8,3.6,8,8v56h56c4.4,0,8,3.6,8,8V440z"/>
</svg>
